0
SECTION
2
HEADER
9
$INSUNITS
70
4
9
$ACADVER
1
AC1014
9
$HANDSEED
5
FFFF
0
ENDSEC
0
SECTION
2
TABLES
0
TABLE
2
VPORT
5
8
100
AcDbSymbolTable
0
ENDTAB
0
TABLE
2
LTYPE
5
5
100
AcDbSymbolTable
0
LTYPE
5
14
100
AcDbSymbolTableRecord
100
AcDbLinetypeTableRecord
2
BYBLOCK
70
0
0
LTYPE
5
15
100
AcDbSymbolTableRecord
100
AcDbLinetypeTableRecord
2
BYLAYER
70
0
0
LTYPE
5
16
100
AcDbSymbolTableRecord
100
AcDbLinetypeTableRecord
2
DASHED
70
0
3
Dashed __ __ __ __ __ __ __ __ __ __ __ __ __ _
72
65
73
2
40
0.75
49
0.5
74
0
49
-0.25
74
0
0
ENDTAB
0
TABLE
2
LAYER
5
2
100
AcDbSymbolTable
70
3
0
LAYER
5
50
100
AcDbSymbolTableRecord
100
AcDbLayerTableRecord
2
1
70
0
62
7
6
DASHED
0
LAYER
5
51
100
AcDbSymbolTableRecord
100
AcDbLayerTableRecord
2
0
70
0
62
7
6
CONTINUOUS
0
ENDTAB
0
TABLE
2
STYLE
5
3
100
AcDbSymbolTable
70
1
0
STYLE
5
11
100
AcDbSymbolTableRecord
100
AcDbTextStyleTableRecord
2
STANDARD
70
0
0
ENDTAB
0
TABLE
2
VIEW
5
6
100
AcDbSymbolTable
70
0
0
ENDTAB
0
TABLE
2
UCS
5
7
100
AcDbSymbolTable
70
0
0
ENDTAB
0
TABLE
2
APPID
5
9
100
AcDbSymbolTable
70
2
0
APPID
5
12
100
AcDbSymbolTableRecord
100
AcDbRegAppTableRecord
2
ACAD
70
0
0
ENDTAB
0
TABLE
2
DIMSTYLE
5
A
100
AcDbSymbolTable
70
1
0
ENDTAB
0
TABLE
2
BLOCK_RECORD
5
1
100
AcDbSymbolTable
70
1
0
BLOCK_RECORD
5
1F
100
AcDbSymbolTableRecord
100
AcDbBlockTableRecord
2
*MODEL_SPACE
0
BLOCK_RECORD
5
1B
100
AcDbSymbolTableRecord
100
AcDbBlockTableRecord
2
*PAPER_SPACE
0
ENDTAB
0
ENDSEC
0
SECTION
2
BLOCKS
0
BLOCK
5
20
100
AcDbEntity
100
AcDbBlockBegin
2
*MODEL_SPACE
0
ENDBLK
5
21
100
AcDbEntity
100
AcDbBlockEnd
0
BLOCK
5
1C
100
AcDbEntity
100
AcDbBlockBegin
2
*PAPER_SPACE
0
ENDBLK
5
1D
100
AcDbEntity
100
AcDbBlockEnd
0
ENDSEC
0
SECTION
2
ENTITIES
0
LWPOLYLINE
5
100
100
AcDbEntity
8
0
100
AcDbPolyline
90
8
70
1
43
0.0
10
-206.98999999999995
20
-37.200000000000308
10
-206.99000000000001
20
-55.200000000000209
42
-0.4142135623730927
10
-218.99000000000001
20
-67.200000000000244
10
-280.98999999999995
20
-67.200000000000088
42
-0.41421356237309792
10
-292.99000000000001
20
-55.200000000000045
10
-292.9899999999999
20
-37.200000000000124
42
-0.41421356237309537
10
-280.98999999999984
20
-25.200000000000102
10
-218.98999999999987
20
-25.200000000000223
42
-0.41421356237309387
0
LWPOLYLINE
5
101
100
AcDbEntity
8
0
100
AcDbPolyline
90
8
70
1
43
0.0
10
-4.9900000000002231
20
-185.20000000000027
10
-4.990000000000185
20
-203.20000000000027
42
-0.41421356237309215
10
-16.990000000000236
20
-215.20000000000024
10
-78.990000000000151
20
-215.20000000000024
42
-0.41421356237309764
10
-90.990000000000208
20
-203.20000000000022
10
-90.990000000000194
20
-185.20000000000033
42
-0.41421356237309548
10
-78.990000000000151
20
-173.20000000000024
10
-16.990000000000247
20
-173.20000000000024
42
-0.41421356237309465
0
LWPOLYLINE
5
102
100
AcDbEntity
8
0
100
AcDbPolyline
90
8
70
1
43
0.0
10
-106.99000000000009
20
-37.200000000000088
10
-106.99000000000004
20
-55.200000000000045
42
-0.41421356237309481
10
-118.99000000000007
20
-67.200000000000102
10
-180.99000000000012
20
-67.200000000000216
42
-0.41421356237308915
10
-192.99000000000004
20
-55.200000000000244
10
-192.99000000000012
20
-37.200000000000287
42
-0.41421356237309709
10
-180.99000000000007
20
-25.200000000000212
10
-118.99000000000018
20
-25.200000000000095
42
-0.41421356237309598
0
LWPOLYLINE
5
103
100
AcDbEntity
8
0
100
AcDbPolyline
90
8
70
1
43
0.0
10
-206.99000000000015
20
-185.20000000000027
10
-206.99000000000012
20
-203.20000000000022
42
-0.41421356237309337
10
-218.99000000000015
20
-215.20000000000024
10
-280.99000000000007
20
-215.20000000000022
42
-0.4142135623730942
10
-292.99000000000012
20
-203.20000000000022
10
-292.99000000000012
20
-185.20000000000027
42
-0.41421356237309592
10
-280.99000000000001
20
-173.20000000000024
10
-218.99000000000018
20
-173.20000000000024
42
-0.41421356237309503
0
LWPOLYLINE
5
104
100
AcDbEntity
8
0
100
AcDbPolyline
90
8
70
1
43
0.0
10
-106.98999999999992
20
-185.20000000000027
10
-106.98999999999991
20
-203.20000000000022
42
-0.41421356237309243
10
-118.9899999999999
20
-215.20000000000024
10
-180.98999999999987
20
-215.20000000000022
42
-0.4142135623730942
10
-192.9899999999999
20
-203.20000000000022
10
-192.9899999999999
20
-185.20000000000027
42
-0.41421356237309592
10
-180.98999999999984
20
-173.20000000000024
10
-118.98999999999995
20
-173.20000000000022
42
-0.41421356237309465
0
LWPOLYLINE
5
105
100
AcDbEntity
8
0
100
AcDbPolyline
90
8
70
1
43
0.0
10
-4.9900000000000322
20
-37.200000000000294
10
-4.9900000000000766
20
-55.200000000000237
42
-0.41421356237309415
10
-16.99000000000013
20
-67.200000000000244
10
-78.990000000000094
20
-67.200000000000102
42
-0.41421356237309531
10
-90.990000000000038
20
-55.200000000000045
10
-90.990000000000009
20
-37.200000000000138
42
-0.41421356237309759
10
-78.989999999999938
20
-25.200000000000109
10
-16.990000000000034
20
-25.200000000000227
42
-0.41421356237309537
0
LWPOLYLINE
5
106
100
AcDbEntity
8
0
100
AcDbPolyline
90
8
70
1
43
0.0
10
-335
20
-4.0000000000005489
42
0.41421356237312557
10
-336.00000000000011
20
-5.0000000000005702
10
-336
20
-235.40000000000003
42
0.4142135623730846
10
-335
20
-236.40000000000001
10
34.999999999999929
20
-236.40000000000001
42
0.41421356237307549
10
35.99999999999995
20
-235.40000000000003
10
35.999999999999936
20
-5.0000000000001421
42
0.41421356237310153
10
34.999999999999936
20
-4.000000000000119
0
ENDSEC
0
SECTION
2
OBJECTS
0
DICTIONARY
5
C
100
AcDbDictionary
3
ACAD_GROUP
350
D
3
ACAD_MLINESTYLE
350
17
0
DICTIONARY
5
D
100
AcDbDictionary
0
DICTIONARY
5
1A
330
C
100
AcDbDictionary
0
DICTIONARY
5
17
100
AcDbDictionary
0
ENDSEC
0
EOF
