0
SECTION
2
HEADER
9
$INSUNITS
70
4
9
$ACADVER
1
AC1014
9
$HANDSEED
5
FFFF
0
ENDSEC
0
SECTION
2
TABLES
0
TABLE
2
VPORT
5
8
100
AcDbSymbolTable
0
ENDTAB
0
TABLE
2
LTYPE
5
5
100
AcDbSymbolTable
0
LTYPE
5
14
100
AcDbSymbolTableRecord
100
AcDbLinetypeTableRecord
2
BYBLOCK
70
0
0
LTYPE
5
15
100
AcDbSymbolTableRecord
100
AcDbLinetypeTableRecord
2
BYLAYER
70
0
0
LTYPE
5
16
100
AcDbSymbolTableRecord
100
AcDbLinetypeTableRecord
2
DASHED
70
0
3
Dashed __ __ __ __ __ __ __ __ __ __ __ __ __ _
72
65
73
2
40
0.75
49
0.5
74
0
49
-0.25
74
0
0
ENDTAB
0
TABLE
2
LAYER
5
2
100
AcDbSymbolTable
70
3
0
LAYER
5
50
100
AcDbSymbolTableRecord
100
AcDbLayerTableRecord
2
1
70
0
62
7
6
DASHED
0
LAYER
5
51
100
AcDbSymbolTableRecord
100
AcDbLayerTableRecord
2
0
70
0
62
7
6
CONTINUOUS
0
ENDTAB
0
TABLE
2
STYLE
5
3
100
AcDbSymbolTable
70
1
0
STYLE
5
11
100
AcDbSymbolTableRecord
100
AcDbTextStyleTableRecord
2
STANDARD
70
0
0
ENDTAB
0
TABLE
2
VIEW
5
6
100
AcDbSymbolTable
70
0
0
ENDTAB
0
TABLE
2
UCS
5
7
100
AcDbSymbolTable
70
0
0
ENDTAB
0
TABLE
2
APPID
5
9
100
AcDbSymbolTable
70
2
0
APPID
5
12
100
AcDbSymbolTableRecord
100
AcDbRegAppTableRecord
2
ACAD
70
0
0
ENDTAB
0
TABLE
2
DIMSTYLE
5
A
100
AcDbSymbolTable
70
1
0
ENDTAB
0
TABLE
2
BLOCK_RECORD
5
1
100
AcDbSymbolTable
70
1
0
BLOCK_RECORD
5
1F
100
AcDbSymbolTableRecord
100
AcDbBlockTableRecord
2
*MODEL_SPACE
0
BLOCK_RECORD
5
1B
100
AcDbSymbolTableRecord
100
AcDbBlockTableRecord
2
*PAPER_SPACE
0
ENDTAB
0
ENDSEC
0
SECTION
2
BLOCKS
0
BLOCK
5
20
100
AcDbEntity
100
AcDbBlockBegin
2
*MODEL_SPACE
0
ENDBLK
5
21
100
AcDbEntity
100
AcDbBlockEnd
0
BLOCK
5
1C
100
AcDbEntity
100
AcDbBlockBegin
2
*PAPER_SPACE
0
ENDBLK
5
1D
100
AcDbEntity
100
AcDbBlockEnd
0
ENDSEC
0
SECTION
2
ENTITIES
0
LWPOLYLINE
5
100
100
AcDbEntity
8
0
100
AcDbPolyline
90
8
70
1
43
0.0
10
-36.00999999999992
20
-4.0000000000001243
42
0.4142135623730947
10
-37.009999999999913
20
-5.0000000000001421
10
-37.009999999999906
20
-235.39999999999998
42
0.41421356237309243
10
-36.009999999999913
20
-236.40000000000001
10
333.99000000000001
20
-236.40000000000001
42
0.41421356237310542
10
334.98999999999995
20
-235.39999999999998
10
334.99000000000001
20
-5.0000000000005684
42
0.41421356237302576
10
333.99000000000001
20
-4.0000000000005063
0
LWPOLYLINE
5
101
100
AcDbEntity
8
0
100
AcDbPolyline
90
8
70
1
43
0.0
10
4.9900000000001077
20
-55.200000000000237
10
4.9900000000000633
20
-37.200000000000294
42
-0.41421356237309537
10
16.990000000000066
20
-25.200000000000227
10
78.989999999999995
20
-25.200000000000109
42
-0.41421356237309626
10
90.990000000000038
20
-37.200000000000138
10
90.990000000000066
20
-55.200000000000045
42
-0.41421356237309659
10
78.990000000000123
20
-67.200000000000102
10
16.990000000000169
20
-67.200000000000244
42
-0.41421356237309431
0
LWPOLYLINE
5
102
100
AcDbEntity
8
0
100
AcDbPolyline
90
8
70
1
43
0.0
10
106.98999999999995
20
-203.20000000000022
10
106.98999999999997
20
-185.20000000000027
42
-0.41421356237309503
10
118.98999999999999
20
-173.20000000000024
10
180.9899999999999
20
-173.20000000000022
42
-0.4142135623730942
10
192.98999999999992
20
-185.20000000000027
10
192.98999999999992
20
-203.20000000000022
42
-0.41421356237309337
10
180.9899999999999
20
-215.20000000000024
10
118.98999999999999
20
-215.20000000000024
42
-0.41421356237309548
0
LWPOLYLINE
5
103
100
AcDbEntity
8
0
100
AcDbPolyline
90
8
70
1
43
0.0
10
206.99000000000018
20
-203.20000000000022
10
206.99000000000024
20
-185.20000000000027
42
-0.4142135623730942
10
218.99000000000024
20
-173.20000000000024
10
280.99000000000012
20
-173.20000000000022
42
-0.4142135623730942
10
292.99000000000012
20
-185.20000000000027
10
292.99000000000012
20
-203.20000000000022
42
-0.41421356237309337
10
280.99000000000012
20
-215.20000000000024
10
218.99000000000024
20
-215.20000000000024
42
-0.41421356237309337
0
LWPOLYLINE
5
104
100
AcDbEntity
8
0
100
AcDbPolyline
90
8
70
1
43
0.0
10
106.99000000000009
20
-55.200000000000045
10
106.99000000000012
20
-37.200000000000088
42
-0.4142135623730947
10
118.99000000000024
20
-25.200000000000088
10
180.99000000000015
20
-25.200000000000216
42
-0.41421356237309775
10
192.99000000000018
20
-37.200000000000287
10
192.99000000000007
20
-55.200000000000244
42
-0.41421356237309026
10
180.99000000000018
20
-67.200000000000216
10
118.99000000000012
20
-67.200000000000102
42
-0.41421356237309631
0
LWPOLYLINE
5
105
100
AcDbEntity
8
0
100
AcDbPolyline
90
8
70
1
43
0.0
10
4.9900000000002436
20
-203.20000000000027
10
4.9900000000002649
20
-185.20000000000027
42
-0.41421356237309481
10
16.990000000000286
20
-173.20000000000024
10
78.990000000000208
20
-173.20000000000024
42
-0.41421356237309503
10
90.990000000000236
20
-185.20000000000027
10
90.990000000000236
20
-203.20000000000022
42
-0.41421356237309742
10
78.99000000000018
20
-215.20000000000024
10
16.990000000000258
20
-215.20000000000024
42
-0.41421356237309431
0
LWPOLYLINE
5
106
100
AcDbEntity
8
0
100
AcDbPolyline
90
8
70
1
43
0.0
10
206.99000000000007
20
-55.200000000000209
10
206.98999999999998
20
-37.200000000000315
42
-0.4142135623730917
10
218.9899999999999
20
-25.200000000000241
10
280.98999999999995
20
-25.200000000000124
42
-0.41421356237309614
10
292.98999999999995
20
-37.200000000000124
10
292.99000000000007
20
-55.200000000000045
42
-0.41421356237309764
10
280.98999999999995
20
-67.200000000000102
10
218.99000000000007
20
-67.200000000000273
42
-0.4142135623730942
0
ENDSEC
0
SECTION
2
OBJECTS
0
DICTIONARY
5
C
100
AcDbDictionary
3
ACAD_GROUP
350
D
3
ACAD_MLINESTYLE
350
17
0
DICTIONARY
5
D
100
AcDbDictionary
0
DICTIONARY
5
1A
330
C
100
AcDbDictionary
0
DICTIONARY
5
17
100
AcDbDictionary
0
ENDSEC
0
EOF
